<?xml version="1.0" standalone="no"?>
<!DOCTYPE svg PUBLIC "-//W3C//DTD SVG 20010904//EN"
 "http://www.w3.org/TR/2001/REC-SVG-20010904/DTD/svg10.dtd">
<svg version="1.0" xmlns="http://www.w3.org/2000/svg"
 width="1536.000000pt" height="1024.000000pt" viewBox="0 0 1536.000000 1024.000000"
 preserveAspectRatio="xMidYMid meet">
<metadata>
Created by potrace 1.16, written by Peter Selinger 2001-2019
</metadata>
<g transform="translate(0.000000,1024.000000) scale(0.100000,-0.100000)"
fill="#000000" stroke="none">
<path d="M3717 8930 c-77 -39 -133 -81 -509 -382 -174 -139 -371 -292 -439
-340 -271 -189 -537 -298 -729 -298 -97 0 -85 -17 40 -62 88 -31 209 -35 309
-10 203 52 358 145 741 447 167 133 227 169 255 159 15 -6 17 -15 11 -73 -4
-36 -12 -118 -17 -181 -5 -63 -16 -137 -24 -165 -22 -74 -77 -167 -114 -192
-103 -70 -250 -22 -297 95 -24 60 -34 58 -34 -8 0 -93 79 -208 155 -225 59
-13 63 -16 73 -43 6 -15 71 -108 145 -206 174 -231 199 -274 205 -340 4 -48 2
-55 -27 -83 -69 -69 -227 -89 -331 -41 -75 34 -179 114 -299 231 l-101 98 59
66 c67 74 110 152 118 214 l6 43 -84 -70 c-46 -39 -162 -132 -256 -208 -95
-76 -173 -139 -173 -140 0 -1 26 0 58 2 51 3 61 1 99 -27 55 -40 109 -120 133
-200 37 -119 25 -178 -92 -426 -134 -283 -199 -460 -263 -715 -25 -98 -75
-335 -75 -349 1 -16 38 68 146 330 124 304 273 625 284 612 15 -17 80 -356 91
-478 16 -171 11 -191 -145 -608 -154 -409 -200 -543 -280 -817 -116 -393 -280
-1077 -274 -1142 3 -28 10 -36 48 -55 72 -35 195 -46 456 -38 165 5 237 4 252
-4 12 -6 32 -30 46 -54 54 -94 344 -1040 463 -1512 l38 -150 9 54 c7 40 5 95
-8 205 -28 246 -61 407 -210 1031 -53 220 -80 385 -71 435 4 19 18 57 33 83
28 52 145 169 204 204 l36 21 11 -26 c18 -45 69 -250 91 -367 41 -221 51 -352
57 -705 7 -467 -3 -655 -73 -1299 -23 -212 -32 -327 -25 -334 6 -6 13 4 20 29
25 94 63 264 100 454 22 113 95 482 161 820 279 1420 320 1608 408 1870 99
292 149 388 261 501 78 78 158 126 251 149 25 6 136 15 247 18 183 6 204 9
230 28 60 45 30 120 -68 170 -27 13 -95 35 -151 49 -296 72 -386 118 -768 400
-269 198 -356 245 -514 280 -99 22 -232 16 -326 -15 -70 -24 -169 -71 -213
-102 -16 -11 -31 -18 -34 -15 -21 22 180 223 332 332 88 63 214 125 254 125
11 0 23 5 26 10 4 6 -37 10 -117 10 -132 0 -253 -22 -411 -74 -43 -14 -80 -26
-83 -26 -3 0 -4 15 -2 32 3 30 10 37 103 85 118 62 209 94 365 128 126 28 214
66 275 121 l40 36 -75 -6 c-320 -23 -438 -44 -595 -107 -58 -23 -109 -39 -113
-34 -4 4 18 29 48 57 82 74 268 163 395 188 141 29 225 76 225 127 0 20 -5 23
-41 23 -23 0 -56 7 -75 16 -30 14 -33 19 -27 47 3 18 37 96 76 175 58 116 72
154 75 201 7 101 -4 119 -182 296 -170 168 -222 239 -252 343 -20 66 -16 83
42 167 106 155 152 297 161 500 6 157 19 185 120 268 37 30 110 98 160 150
119 121 147 183 103 227 -29 29 -84 25 -153 -10z m-1068 -4076 c-116 -554
-270 -1204 -276 -1173 -5 23 63 560 93 727 29 166 71 333 115 458 42 119 104
243 115 231 2 -2 -19 -111 -47 -243z m1438 -571 c-14 -26 -43 -106 -66 -177
-117 -359 -228 -960 -322 -1735 -16 -132 -25 -177 -31 -160 -5 12 -18 158 -28
323 -29 440 -67 781 -115 1032 -20 106 -19 130 10 192 19 41 56 83 152 175 71
67 193 186 273 264 79 78 146 140 148 138 2 -1 -8 -25 -21 -52z"/>
<path d="M2333 7118 c-54 -102 -81 -187 -167 -536 -128 -515 -151 -680 -151
-1102 0 -268 3 -322 23 -448 25 -166 53 -281 82 -343 l20 -44 -5 55 c-24 275
-27 368 -22 663 7 415 37 669 123 1035 62 261 102 455 118 563 26 175 19 230
-21 157z"/>
<path d="M3915 6255 c105 -91 302 -204 444 -255 79 -29 69 -34 -101 -51 -117
-11 -362 -8 -418 6 l-25 7 23 -21 c31 -27 122 -60 212 -77 90 -16 264 -18 346
-3 81 14 180 47 195 65 19 23 -21 57 -168 141 -195 111 -461 223 -527 223 -18
0 -15 -5 19 -35z"/>
<path d="M7640 4742 c-102 -51 -106 -191 -8 -253 47 -29 137 -23 174 12 42 39
57 77 52 131 -10 102 -122 159 -218 110z"/>
<path d="M6570 3990 l0 -750 130 0 129 0 3 378 c3 422 4 425 76 480 29 22 46
27 93 27 50 0 62 -4 88 -29 54 -52 56 -67 56 -478 l0 -378 133 0 132 0 0 383
c0 217 -5 410 -11 447 -19 120 -74 206 -163 253 -35 19 -57 22 -146 22 -115 0
-152 -12 -225 -76 l-35 -31 0 251 0 251 -130 0 -130 0 0 -750z"/>
<path d="M10000 3990 l0 -750 254 0 c285 0 380 12 481 60 117 56 188 145 215
271 17 78 9 202 -18 262 -24 55 -107 146 -156 172 l-35 19 44 47 c58 62 94
137 104 214 21 180 -51 334 -191 406 -79 41 -149 49 -430 49 l-268 0 0 -750z
m511 499 c72 -25 103 -75 103 -169 0 -82 -28 -147 -79 -186 -36 -27 -45 -29
-152 -32 l-113 -4 0 201 0 201 104 0 c56 0 118 -5 137 -11z m20 -599 c95 -27
144 -95 144 -200 -1 -150 -80 -200 -312 -200 l-93 0 0 205 0 205 113 0 c61 0
128 -5 148 -10z"/>
<path d="M13310 3990 l0 -750 130 0 130 0 0 750 0 750 -130 0 -130 0 0 -750z"/>
<path d="M12080 4465 l0 -135 -57 0 -58 0 0 -105 0 -105 57 0 57 0 3 -342 c3
-336 4 -344 27 -395 27 -62 92 -125 147 -144 57 -20 189 -18 247 4 l47 19 0
108 0 109 -68 -6 c-66 -5 -70 -4 -103 25 l-34 30 -3 296 -3 296 105 0 106 0 0
105 0 105 -105 0 -105 0 0 135 0 135 -130 0 -130 0 0 -135z"/>
<path d="M12730 4465 l0 -135 -55 0 -55 0 0 -105 0 -105 55 0 55 0 0 -257 c1
-466 24 -553 163 -613 87 -38 182 -37 280 2 l27 10 0 109 0 108 -63 -6 c-74
-7 -109 9 -126 58 -6 18 -11 143 -11 307 l-1 277 100 3 101 3 0 104 0 105
-102 0 -103 0 3 135 4 135 -136 0 -136 0 0 -135z"/>
<path d="M5081 4334 c-62 -22 -110 -54 -153 -102 -43 -48 -54 -66 -78 -137
l-18 -54 26 -5 c42 -9 165 -26 187 -26 14 0 26 14 41 48 32 74 102 100 179 68
44 -19 67 -64 73 -148 l5 -67 -34 -5 c-240 -36 -322 -64 -400 -134 -27 -24
-62 -68 -77 -96 -24 -45 -27 -62 -27 -141 1 -70 6 -101 22 -136 27 -60 86
-125 137 -151 50 -26 141 -34 192 -18 56 18 162 88 179 119 l14 26 1 -30 c0
-16 3 -47 7 -69 l6 -38 118 4 c65 2 121 7 125 10 3 4 1 38 -5 77 -6 39 -11
209 -11 388 0 229 -4 334 -14 374 -25 107 -91 190 -185 233 -62 28 -245 34
-310 10z m259 -688 l0 -93 -40 -45 c-64 -73 -136 -96 -199 -63 -54 28 -74 139
-34 193 37 50 152 99 241 101 l32 1 0 -94z"/>
<path d="M5935 4337 c-92 -31 -158 -86 -197 -166 -19 -37 -23 -63 -23 -131 0
-73 4 -93 29 -143 39 -80 111 -136 246 -188 146 -57 177 -75 195 -109 74 -142
-154 -251 -233 -111 -12 21 -22 48 -22 59 0 12 -3 23 -7 25 -5 3 -53 -1 -108
-9 -55 -7 -104 -13 -109 -14 -13 0 3 -69 31 -133 32 -72 103 -138 181 -168 82
-32 234 -32 314 0 72 28 150 100 179 166 33 74 37 184 10 256 -42 110 -113
164 -321 241 -105 39 -150 79 -150 133 0 29 8 45 34 71 30 30 40 34 86 34 47
0 56 -4 86 -36 19 -19 34 -44 34 -54 0 -10 5 -22 11 -25 5 -4 57 -1 115 6
l106 12 -7 36 c-19 100 -91 192 -184 234 -58 26 -233 34 -296 14z"/>
<path d="M8285 4336 c-151 -49 -240 -150 -286 -323 -27 -102 -30 -333 -5 -436
35 -147 121 -263 232 -314 167 -76 384 -44 502 74 92 92 130 208 139 418 12
298 -65 473 -245 558 -62 29 -76 32 -182 34 -75 2 -129 -2 -155 -11z m236
-236 c68 -49 107 -197 95 -362 -15 -196 -75 -288 -188 -288 -86 0 -143 52
-174 158 -24 81 -21 288 5 372 21 68 62 119 111 139 36 16 116 5 151 -19z"/>
<path d="M9410 4341 c-39 -12 -92 -41 -132 -73 l-38 -30 0 46 0 46 -120 0
-120 0 0 -545 0 -545 130 0 130 0 0 383 c0 377 1 383 23 421 35 61 67 80 138
81 57 0 62 -2 94 -36 50 -56 55 -97 55 -494 l0 -355 131 0 131 0 -5 418 c-5
432 -8 466 -50 548 -24 46 -101 110 -154 128 -48 17 -168 20 -213 7z"/>
<path d="M11333 4330 c-103 -36 -188 -122 -220 -222 -12 -35 -19 -65 -17 -67
5 -6 172 -31 206 -31 21 0 29 7 37 33 7 19 25 47 42 63 26 25 38 29 89 29 48
0 63 -4 85 -25 38 -35 55 -80 55 -144 0 -54 0 -55 -32 -60 -183 -28 -236 -39
-292 -62 -77 -30 -146 -88 -184 -152 -25 -43 -27 -56 -27 -152 0 -89 4 -112
22 -150 63 -128 205 -196 334 -160 53 15 158 86 172 117 12 26 12 24 22 -37
l10 -65 123 1 c67 1 125 4 128 7 3 3 1 31 -5 63 -6 33 -11 191 -11 368 0 334
-7 412 -45 486 -32 62 -113 134 -181 159 -74 28 -235 29 -311 1z m277 -685 l0
-95 -42 -47 c-73 -78 -152 -96 -208 -45 -54 48 -58 145 -8 199 39 43 138 79
226 82 l32 1 0 -95z"/>
<path d="M14015 4337 c-157 -53 -251 -156 -296 -323 -28 -105 -31 -345 -6
-447 47 -191 171 -311 353 -339 219 -34 395 77 450 285 7 26 9 47 6 47 -4 0
-50 7 -102 15 -130 20 -123 22 -143 -34 -25 -71 -64 -101 -133 -101 -119 0
-180 70 -198 228 l-7 52 307 0 307 0 -6 138 c-3 75 -12 160 -20 187 -36 127
-110 221 -213 270 -50 24 -74 29 -159 32 -65 2 -114 -2 -140 -10z m212 -235
c37 -26 71 -92 75 -145 l3 -38 -178 -2 -177 -2 0 30 c1 68 37 130 95 167 42
27 138 21 182 -10z"/>
<path d="M7580 3785 l0 -545 130 0 130 0 0 545 0 545 -130 0 -130 0 0 -545z"/>
</g>
</svg>
